<?xml version="1.0" encoding="UTF-8" standalone="no"?>
<!DOCTYPE svg PUBLIC "-//W3C//DTD SVG 1.1//EN" "http://www.w3.org/Graphics/SVG/1.1/DTD/svg11.dtd">
<svg xmlns:xl="http://www.w3.org/1999/xlink" version="1.1" xmlns:dc="http://purl.org/dc/elements/1.1/" xmlns="http://www.w3.org/2000/svg" viewBox="0 0 434 68" width="434" height="68">
  <defs/>
  <metadata> Produced by OmniGraffle 7.18.5\n2021-06-06 10:38:09 +0000</metadata>
  <g id="Canvas_1" stroke-dasharray="none" fill="none" stroke-opacity="1" stroke="none" fill-opacity="1">
    <title>Canvas 1</title>
    <g id="Canvas_1_Layer_1">
      <title>Layer 1</title>
      <g id="Group_2">
        <title>layer1</title>
        <g id="Group_12">
          <title>g5493</title>
          <g id="Graphic_35">
            <title>rect898-95-1-3-8-3-6-6</title>
            <rect x="66.9855" y="66.801494" width=".047247026" height=".1889881" fill="#fdb515"/>
          </g>
          <g id="Graphic_34">
            <title>rect10-04-2-1-1-3-5-2</title>
            <path d="M 12.032481 1.9903242 C 6.4924715 1.9903242 2.0325815 6.450234 2.0325815 11.990234 L 2.0325815 55.990644 C 2.0325815 61.530644 6.4924715 65.990554 12.032481 65.990554 L 34.03269 65.990554 L 56.0329 65.990554 C 61.5729 65.990554 66.03281 61.530644 66.03281 55.990644 L 66.03281 11.990234 C 66.03281 6.450234 61.5729 1.9903242 56.0329 1.9903242 C 56.0329 1.9903242 41.36609 1.9903242 34.03269 1.9903242 C 26.69928 1.9903242 12.032481 1.9903242 12.032481 1.9903242 Z" fill="#003262"/>
            <path d="M 12.032481 1.9903242 C 6.4924715 1.9903242 2.0325815 6.450234 2.0325815 11.990234 L 2.0325815 55.990644 C 2.0325815 61.530644 6.4924715 65.990554 12.032481 65.990554 L 34.03269 65.990554 L 56.0329 65.990554 C 61.5729 65.990554 66.03281 61.530644 66.03281 55.990644 L 66.03281 11.990234 C 66.03281 6.450234 61.5729 1.9903242 56.0329 1.9903242 C 56.0329 1.9903242 41.36609 1.9903242 34.03269 1.9903242 C 26.69928 1.9903242 12.032481 1.9903242 12.032481 1.9903242 Z" stroke="#3b7ea1" stroke-linecap="butt" stroke-linejoin="round" stroke-width="2"/>
          </g>
          <g id="Graphic_33">
            <title>rect4679-8-72-36-2-9-8-6-5</title>
            <path d="M 28.91207 13.811424 L 28.91207 51.653393 C 28.91207 52.75796 28.01664 53.653393 26.91207 53.653393 C 25.807502 53.653393 24.91207 52.75796 24.91207 51.653393 L 24.91207 13.811424 C 24.91207 12.706855 25.807502 11.811424 26.91207 11.811424 C 28.01664 11.811424 28.91207 12.706855 28.91207 13.811424 Z" fill="#c4820e"/>
          </g>
          <g id="Graphic_32">
            <title>rect4679-8-7-7-0-0-3-6-3-8</title>
            <path d="M 43.12026 13.942524 L 43.12026 52.39799 C 43.12026 53.50256 42.22483 54.39799 41.12026 54.39799 C 40.01569 54.39799 39.12026 53.50256 39.12026 52.39799 L 39.12026 13.942524 C 39.12026 12.837955 40.01569 11.942524 41.12026 11.942524 C 42.22483 11.942524 43.12026 12.837955 43.12026 13.942524 Z" fill="#c4820e"/>
          </g>
          <g id="Graphic_31">
            <title>path2812-5-8-2-6</title>
            <path d="M 12.426431 14.495724 C 34.00008 16.390004 34.10534 16.401694 55.29312 14.507424" stroke="#c4820e" stroke-linecap="butt" stroke-linejoin="round" stroke-width="3.5"/>
          </g>
          <g id="Graphic_30">
            <title>rect821-1-7-6-0-9-9-2</title>
            <path d="M 9.332601 9.151614 C 8.418731 9.019844 7.707501 9.994234 7.706971 10.917564 L 7.703971 16.909284 C 7.703971 17.832614 8.458641 18.962414 9.378781 19.038874 L 16.045571 19.592844 C 16.965741 19.669344 17.692631 18.709044 17.695591 17.785714 L 17.713091 12.338264 C 17.716091 11.414944 16.977971 10.253904 16.064071 10.122134 Z" fill="#fdb515"/>
          </g>
          <g id="Graphic_29">
            <title>rect821-2-59-92-6-9-7-3-8</title>
            <path d="M 23.473621 11.016654 C 22.552791 10.948254 21.847651 11.911914 21.853811 12.835224 L 21.888911 18.087144 C 21.894911 19.010454 22.644801 20.120604 23.567171 20.162964 L 30.18717 20.466984 C 31.10954 20.509384 31.89392 19.443094 31.90051 18.519784 L 31.93561 13.595274 C 31.94261 12.671964 31.16644 11.587814 30.24566 11.519454 Z" fill="#fdb515"/>
          </g>
          <g id="Graphic_28">
            <title>rect821-0-4-02-4-6-7-9-4</title>
            <path d="M 37.82184 11.507754 C 36.90064 11.570454 36.11581 12.660254 36.1202 13.583574 L 36.1435 18.508094 C 36.1485 19.431414 36.86441 20.546044 37.78668 20.502064 L 44.40669 20.186354 C 45.32896 20.142354 46.1593 18.987074 46.1551 18.063754 L 46.1318 12.928764 C 46.1278 12.005444 45.44488 10.989044 44.52371 11.051734 Z" fill="#fdb515"/>
          </g>
          <g id="Graphic_27">
            <title>rect821-23-90-37-9-3-6-0-7</title>
            <path d="M 51.9952 10.188244 C 51.07924 10.304694 50.34658 11.444104 50.34518 12.367444 L 50.33718 17.793984 C 50.33418 18.717314 51.10855 19.704474 52.02853 19.625914 L 58.61263 19.063674 C 59.53259 18.985074 60.3288 17.923564 60.3288 17.000234 L 60.3288 11.127204 C 60.3288 10.203874 59.5451 9.228444 58.62917 9.344894 Z" fill="#fdb515"/>
          </g>
          <g id="Graphic_26">
            <title>path2812-1-1-0-9-2</title>
            <path d="M 12.553441 53.222884 C 34.1154 51.258444 34.20411 51.246414 55.3802 53.210884" stroke="#c4820e" stroke-linecap="butt" stroke-linejoin="round" stroke-width="3.5"/>
          </g>
          <g id="Graphic_25">
            <title>rect821-6-1-9-7-5-9-6-4</title>
            <path d="M 9.353871 48.764704 C 8.433961 48.844204 7.722891 49.888794 7.720381 50.812124 L 7.703981 56.916144 C 7.700981 57.839474 8.489601 58.730604 9.403611 58.599764 L 15.987721 57.657184 C 16.901741 57.526334 17.734121 56.318114 17.736951 55.394784 L 17.753351 50.018374 C 17.756351 49.095044 16.973651 48.106464 16.053721 48.185924 Z" fill="#fdb515"/>
          </g>
          <g id="Graphic_24">
            <title>rect821-2-1-59-7-1-9-2-3-0</title>
            <path d="M 23.496161 47.607154 C 22.573691 47.647354 21.964861 48.797384 21.961901 49.720714 L 21.945501 54.882154 C 21.942501 55.805484 22.724241 56.781964 23.645131 56.714604 L 30.42767 56.218514 C 31.34852 56.151114 32.00728 55.127414 31.99501 54.204164 L 31.92881 49.224624 C 31.91661 48.301374 31.25085 47.269304 30.3284 47.309494 Z" fill="#fdb515"/>
          </g>
          <g id="Graphic_23">
            <title>rect821-0-2-7-36-7-8-5-8-6</title>
            <path d="M 37.83354 47.324454 C 36.91123 47.281254 36.14579 48.337144 36.14359 49.260474 L 36.13199 54.196164 C 36.12899 55.119494 36.70243 56.168304 37.62315 56.237424 L 44.47703 56.751914 C 45.39775 56.821014 46.11604 55.856144 46.1202 54.932824 L 46.1435 49.728194 C 46.1475 48.804874 45.49281 47.683384 44.57047 47.640164 Z" fill="#fdb515"/>
          </g>
          <g id="Graphic_22">
            <title>rect821-23-9-76-1-2-4-4-5-2</title>
            <path d="M 52.02827 48.202464 C 51.10845 48.122064 50.33433 49.111594 50.32864 50.034914 L 50.29554 55.411324 C 50.28954 56.334644 51.22878 57.501974 52.144 57.624114 L 58.71157 58.500544 C 59.62676 58.622674 60.3667 57.690634 60.36159 56.767314 L 60.32849 50.795584 C 60.32349 49.872264 59.56519 48.861694 58.6454 48.781244 Z" fill="#fdb515"/>
          </g>
          <g id="Group_13">
            <title>g4779-9</title>
            <g id="Graphic_21">
              <title>rect821-7-48-9</title>
              <path d="M 9.370658 22.340223 L 16.037325 22.340223 C 16.9578 22.340223 17.703991 23.086415 17.703991 24.00689 L 17.703991 30.673557 C 17.703991 31.59403 16.9578 32.340223 16.037325 32.340223 L 9.370658 32.340223 C 8.450184 32.340223 7.703991 31.59403 7.703991 30.673557 L 7.703991 24.00689 C 7.703991 23.086415 8.450184 22.340223 9.370658 22.340223 Z" fill="#3b7ea1"/>
            </g>
            <g id="Graphic_20">
              <title>rect821-23-2-8-0</title>
              <path d="M 51.99529 22.340223 L 58.661955 22.340223 C 59.58243 22.340223 60.32862 23.086415 60.32862 24.00689 L 60.32862 30.673557 C 60.32862 31.59403 59.58243 32.340223 58.661955 32.340223 L 51.99529 32.340223 C 51.074814 32.340223 50.32862 31.59403 50.32862 30.673557 L 50.32862 24.00689 C 50.32862 23.086415 51.074814 22.340223 51.99529 22.340223 Z" fill="#3b7ea1"/>
            </g>
            <g id="Graphic_19">
              <title>rect821-28-89-8</title>
              <path d="M 9.370658 35.425163 L 16.037325 35.425163 C 16.9578 35.425163 17.703991 36.171355 17.703991 37.09183 L 17.703991 43.758497 C 17.703991 44.67897 16.9578 45.425163 16.037325 45.425163 L 9.370658 45.425163 C 8.450184 45.425163 7.703991 44.67897 7.703991 43.758497 L 7.703991 37.09183 C 7.703991 36.171355 8.450184 35.425163 9.370658 35.425163 Z" fill="#3b7ea1"/>
            </g>
            <g id="Graphic_18">
              <title>rect821-23-3-7-1</title>
              <path d="M 51.99529 35.425163 L 58.661955 35.425163 C 59.58243 35.425163 60.32862 36.171355 60.32862 37.09183 L 60.32862 43.758497 C 60.32862 44.67897 59.58243 45.425163 58.661955 45.425163 L 51.99529 45.425163 C 51.074814 45.425163 50.32862 44.67897 50.32862 43.758497 L 50.32862 37.09183 C 50.32862 36.171355 51.074814 35.425163 51.99529 35.425163 Z" fill="#3b7ea1"/>
            </g>
            <g id="Graphic_17">
              <title>rect821-2-5-7-3</title>
              <path d="M 23.578848 22.340223 L 30.245515 22.340223 C 31.16599 22.340223 31.91218 23.086415 31.91218 24.00689 L 31.91218 30.673557 C 31.91218 31.59403 31.16599 32.340223 30.245515 32.340223 L 23.578848 32.340223 C 22.658374 32.340223 21.912181 31.59403 21.912181 30.673557 L 21.912181 24.00689 C 21.912181 23.086415 22.658374 22.340223 23.578848 22.340223 Z" fill="#fdb515"/>
            </g>
            <g id="Graphic_16">
              <title>rect821-0-9-64-1</title>
              <path d="M 37.78707 22.340223 L 44.453735 22.340223 C 45.37421 22.340223 46.1204 23.086415 46.1204 24.00689 L 46.1204 30.673557 C 46.1204 31.59403 45.37421 32.340223 44.453735 32.340223 L 37.78707 32.340223 C 36.866594 32.340223 36.1204 31.59403 36.1204 30.673557 L 36.1204 24.00689 C 36.1204 23.086415 36.866594 22.340223 37.78707 22.340223 Z" fill="#fdb515"/>
            </g>
            <g id="Graphic_15">
              <title>rect821-2-9-3-1</title>
              <path d="M 23.578848 35.425163 L 30.245515 35.425163 C 31.16599 35.425163 31.91218 36.171355 31.91218 37.09183 L 31.91218 43.758497 C 31.91218 44.67897 31.16599 45.425163 30.245515 45.425163 L 23.578848 45.425163 C 22.658374 45.425163 21.912181 44.67897 21.912181 43.758497 L 21.912181 37.09183 C 21.912181 36.171355 22.658374 35.425163 23.578848 35.425163 Z" fill="#fdb515"/>
            </g>
            <g id="Graphic_14">
              <title>rect821-0-7-0-0</title>
              <path d="M 37.78707 35.425163 L 44.453735 35.425163 C 45.37421 35.425163 46.1204 36.171355 46.1204 37.09183 L 46.1204 43.758497 C 46.1204 44.67897 45.37421 45.425163 44.453735 45.425163 L 37.78707 45.425163 C 36.866594 45.425163 36.1204 44.67897 36.1204 43.758497 L 36.1204 37.09183 C 36.1204 36.171355 36.866594 35.425163 37.78707 35.425163 Z" fill="#fdb515"/>
            </g>
          </g>
        </g>
        <g id="Group_8">
          <title>flowRoot5074</title>
          <g id="Graphic_11">
            <title>path10425</title>
            <rect x="327.82738" y="2.440874" width="14.276755" height="63.491884" fill="#3b7ea1"/>
          </g>
          <g id="Graphic_10">
            <title>path10427</title>
            <path d="M 353.49497 65.93276 L 353.49497 2.440874 L 392.6801 35.148815 L 392.832 2.440874 L 407.10874 2.440874 L 407.10874 65.93276 L 367.77173 33.301778 L 367.77173 65.93276 Z" fill="#3b7ea1"/>
          </g>
          <g id="Graphic_9">
            <title>path10429</title>
            <rect x="418.49977" y="2.440874" width="14.276755" height="63.491884" fill="#3b7ea1"/>
          </g>
        </g>
        <g id="Group_5">
          <title>flowRoot5074-0</title>
          <g id="Graphic_7">
            <title>path10420</title>
            <path d="M 113.9042 14.273652 C 105.77859 14.273652 98.71616 22.200518 98.7921 33.205778 C 98.64022 56.062856 124.23206 55.75502 125.21928 46.750713 C 125.21928 41.517443 123.62454 41.594403 111.24629 41.440483 L 114.2839 30.281303 L 140.10356 30.281303 C 140.10356 50.829586 139.4201 66.5294 112.91697 66.99116 C 96.05825 66.99116 82.38902 52.291823 82.38902 34.129296 C 82.38902 15.88981 95.29885 1.1904762 112.99291 1.1904762 C 124.00424 1.1904762 131.75014 5.3463086 137.21783 12.041816 L 127.87719 22.431398 C 124.23206 16.505488 119.14407 14.273652 113.9042 14.273652 Z" fill="#003262"/>
          </g>
          <g id="Graphic_6">
            <title>path10422</title>
            <path d="M 185.97124 2.344874 L 150.12747 2.344874 L 150.12747 65.83676 L 185.97124 65.83676 L 185.97124 53.13838 L 164.40423 53.13838 L 164.40423 40.363045 L 185.05996 40.363045 L 185.05996 27.664668 L 164.40423 27.664668 L 164.40423 15.043251 L 185.97124 15.043251 Z" fill="#003262"/>
          </g>
        </g>
        <g id="Graphic_4">
          <title>flowRoot5074-0-6</title>
          <path d="M 197.58808 2.2866382 L 197.57138 65.91732 L 211.8557 65.93282 L 211.8833 33.20032 L 224.31408 47.20295 L 236.99827 34.81718 L 237.08397 65.87366 L 251.0992 65.90736 L 251.0992 2.2867382 L 224.31412 28.976998 Z" fill="#003262"/>
        </g>
        <g id="Graphic_3">
          <title>flowRoot5074-0-6-5</title>
          <path d="M 262.7159 2.2866482 L 262.6992 65.91733 L 276.9835 65.93283 L 277.0111 33.20033 L 289.44187 47.20296 L 302.12607 34.81719 L 302.21207 65.87367 L 316.22737 65.90737 L 316.22737 2.2867382 L 289.44222 28.976998 Z" fill="#003262"/>
        </g>
      </g>
    </g>
  </g>
</svg>
