<?xml version="1.0" encoding="UTF-8" standalone="no"?>
<!DOCTYPE svg PUBLIC "-//W3C//DTD SVG 1.1//EN" "http://www.w3.org/Graphics/SVG/1.1/DTD/svg11.dtd">
<svg xmlns:xl="http://www.w3.org/1999/xlink" version="1.1" xmlns:dc="http://purl.org/dc/elements/1.1/" xmlns="http://www.w3.org/2000/svg" viewBox="0 0 431 66" width="431" height="66">
  <defs/>
  <metadata> Produced by OmniGraffle 7.18.5\n2021-06-06 05:33:41 +0000</metadata>
  <g id="Canvas_1" stroke-dasharray="none" fill="none" stroke-opacity="1" stroke="none" fill-opacity="1">
    <title>Canvas 1</title>
    <g id="Canvas_1_Layer_1">
      <title>Layer 1</title>
      <g id="Group_2">
        <title>layer1</title>
        <g id="Group_12">
          <title>g5493</title>
          <g id="Graphic_35">
            <title>rect898-95-1-3-8-3-6-6</title>
            <rect x="64.95292" y="65.61102" width=".047247026" height=".1889881" fill="#fdb515"/>
          </g>
          <g id="Graphic_34">
            <title>rect10-04-2-1-1-3-5-2</title>
            <path d="M 9.9999 .799848 C 4.45989 .799848 0 5.259758 0 10.799758 L 0 54.80017 C 0 60.34017 4.45989 64.80008 9.9999 64.80008 L 32.00011 64.80008 L 54.00032 64.80008 C 59.54032 64.80008 64.00023 60.34017 64.00023 54.80017 L 64.00023 10.799758 C 64.00023 5.259758 59.54032 .799848 54.00032 .799848 C 54.00032 .799848 39.33351 .799848 32.00011 .799848 C 24.6667 .799848 9.9999 .799848 9.9999 .799848 Z" fill="#003262"/>
            <path d="M 9.9999 .799848 C 4.45989 .799848 0 5.259758 0 10.799758 L 0 54.80017 C 0 60.34017 4.45989 64.80008 9.9999 64.80008 L 32.00011 64.80008 L 54.00032 64.80008 C 59.54032 64.80008 64.00023 60.34017 64.00023 54.80017 L 64.00023 10.799758 C 64.00023 5.259758 59.54032 .799848 54.00032 .799848 C 54.00032 .799848 39.33351 .799848 32.00011 .799848 C 24.6667 .799848 9.9999 .799848 9.9999 .799848 Z" stroke="#3b7ea1" stroke-linecap="butt" stroke-linejoin="round" stroke-width="2"/>
          </g>
          <g id="Graphic_33">
            <title>rect4679-8-72-36-2-9-8-6-5</title>
            <path d="M 26.87949 12.620948 L 26.87949 50.46292 C 26.87949 51.567487 25.98406 52.46292 24.87949 52.46292 C 23.77492 52.46292 22.87949 51.567487 22.87949 50.46292 L 22.87949 12.620948 C 22.87949 11.516379 23.77492 10.620948 24.87949 10.620948 C 25.98406 10.620948 26.87949 11.516379 26.87949 12.620948 Z" fill="#c4820e"/>
          </g>
          <g id="Graphic_32">
            <title>rect4679-8-7-7-0-0-3-6-3-8</title>
            <path d="M 41.08768 12.752048 L 41.08768 51.207515 C 41.08768 52.312085 40.19225 53.207515 39.08768 53.207515 C 37.98311 53.207515 37.08768 52.312085 37.08768 51.207515 L 37.08768 12.752048 C 37.08768 11.647479 37.98311 10.752048 39.08768 10.752048 C 40.19225 10.752048 41.08768 11.647479 41.08768 12.752048 Z" fill="#c4820e"/>
          </g>
          <g id="Graphic_31">
            <title>path2812-5-8-2-6</title>
            <path d="M 10.39385 13.305248 C 31.9675 15.199528 32.07276 15.211218 53.26054 13.316948" stroke="#c4820e" stroke-linecap="butt" stroke-linejoin="round" stroke-width="3.5"/>
          </g>
          <g id="Graphic_30">
            <title>rect821-1-7-6-0-9-9-2</title>
            <path d="M 7.30002 7.961138 C 6.38615 7.829368 5.67492 8.803758 5.67439 9.727088 L 5.67139 15.718808 C 5.67139 16.642138 6.42606 17.771938 7.3462 17.848398 L 14.01299 18.402368 C 14.93316 18.478868 15.66005 17.518568 15.66301 16.595238 L 15.68051 11.147788 C 15.68351 10.224468 14.94539 9.063428 14.03149 8.931658 Z" fill="#fdb515"/>
          </g>
          <g id="Graphic_29">
            <title>rect821-2-59-92-6-9-7-3-8</title>
            <path d="M 21.44104 9.826178 C 20.52021 9.757778 19.81507 10.721438 19.82123 11.644748 L 19.85633 16.896668 C 19.86233 17.819978 20.61222 18.930128 21.53459 18.972488 L 28.15459 19.276508 C 29.07696 19.318908 29.86134 18.252618 29.86793 17.329308 L 29.90303 12.404798 C 29.91003 11.481488 29.13386 10.397338 28.21308 10.328978 Z" fill="#fdb515"/>
          </g>
          <g id="Graphic_28">
            <title>rect821-0-4-02-4-6-7-9-4</title>
            <path d="M 35.78926 10.317278 C 34.86806 10.379978 34.08323 11.469778 34.08762 12.393098 L 34.11092 17.317618 C 34.11592 18.240938 34.83183 19.355568 35.7541 19.311588 L 42.37411 18.995878 C 43.29638 18.951878 44.12672 17.796598 44.12252 16.873278 L 44.09922 11.738288 C 44.09522 10.814968 43.4123 9.798568 42.49113 9.861258 Z" fill="#fdb515"/>
          </g>
          <g id="Graphic_27">
            <title>rect821-23-90-37-9-3-6-0-7</title>
            <path d="M 49.96262 8.997768 C 49.04666 9.114218 48.314 10.253628 48.3126 11.176968 L 48.3046 16.603508 C 48.3016 17.526838 49.07597 18.513998 49.99595 18.435438 L 56.58005 17.873198 C 57.50001 17.794598 58.29622 16.733088 58.29622 15.809758 L 58.29622 9.936728 C 58.29622 9.013398 57.51252 8.037968 56.59659 8.154418 Z" fill="#fdb515"/>
          </g>
          <g id="Graphic_26">
            <title>path2812-1-1-0-9-2</title>
            <path d="M 10.52086 52.03241 C 32.08282 50.06797 32.17153 50.05594 53.34762 52.02041" stroke="#c4820e" stroke-linecap="butt" stroke-linejoin="round" stroke-width="3.5"/>
          </g>
          <g id="Graphic_25">
            <title>rect821-6-1-9-7-5-9-6-4</title>
            <path d="M 7.32129 47.57423 C 6.40138 47.65373 5.69031 48.69832 5.6878 49.62165 L 5.6714 55.72567 C 5.6684 56.649 6.45702 57.54013 7.37103 57.40929 L 13.95514 56.46671 C 14.86916 56.33586 15.70154 55.12764 15.70437 54.20431 L 15.72077 48.8279 C 15.72377 47.90457 14.94107 46.91599 14.02114 46.99545 Z" fill="#fdb515"/>
          </g>
          <g id="Graphic_24">
            <title>rect821-2-1-59-7-1-9-2-3-0</title>
            <path d="M 21.46358 46.41668 C 20.54111 46.45688 19.93228 47.60691 19.92932 48.53024 L 19.91292 53.69168 C 19.90992 54.61501 20.69166 55.59149 21.61255 55.52413 L 28.39509 55.02804 C 29.31594 54.96064 29.9747 53.93694 29.96243 53.01369 L 29.89623 48.03415 C 29.88403 47.1109 29.21827 46.07883 28.29582 46.11902 Z" fill="#fdb515"/>
          </g>
          <g id="Graphic_23">
            <title>rect821-0-2-7-36-7-8-5-8-6</title>
            <path d="M 35.80096 46.13398 C 34.87865 46.09078 34.11321 47.14667 34.11101 48.07 L 34.09941 53.00569 C 34.09641 53.92902 34.66985 54.97783 35.59057 55.04695 L 42.44445 55.56144 C 43.36517 55.63054 44.08346 54.66567 44.08762 53.74235 L 44.11092 48.53772 C 44.11492 47.6144 43.46023 46.49291 42.53789 46.44969 Z" fill="#fdb515"/>
          </g>
          <g id="Graphic_22">
            <title>rect821-23-9-76-1-2-4-4-5-2</title>
            <path d="M 49.99569 47.01199 C 49.07587 46.93159 48.30175 47.92112 48.29606 48.84444 L 48.26296 54.22085 C 48.25696 55.14417 49.1962 56.3115 50.11142 56.43364 L 56.67899 57.31007 C 57.59418 57.4322 58.33412 56.50016 58.32901 55.57684 L 58.29591 49.60511 C 58.29091 48.68179 57.53261 47.67122 56.61282 47.59077 Z" fill="#fdb515"/>
          </g>
          <g id="Group_13">
            <title>g4779-9</title>
            <g id="Graphic_21">
              <title>rect821-7-48-9</title>
              <path d="M 7.338077 21.149747 L 14.004743 21.149747 C 14.925218 21.149747 15.67141 21.89594 15.67141 22.816414 L 15.67141 29.48308 C 15.67141 30.403555 14.925218 31.149747 14.004743 31.149747 L 7.338077 31.149747 C 6.417602 31.149747 5.67141 30.403555 5.67141 29.48308 L 5.67141 22.816414 C 5.67141 21.89594 6.417602 21.149747 7.338077 21.149747 Z" fill="#3b7ea1"/>
            </g>
            <g id="Graphic_20">
              <title>rect821-23-2-8-0</title>
              <path d="M 49.962707 21.149747 L 56.629373 21.149747 C 57.54985 21.149747 58.29604 21.89594 58.29604 22.816414 L 58.29604 29.48308 C 58.29604 30.403555 57.54985 31.149747 56.629373 31.149747 L 49.962707 31.149747 C 49.04223 31.149747 48.29604 30.403555 48.29604 29.48308 L 48.29604 22.816414 C 48.29604 21.89594 49.04223 21.149747 49.962707 21.149747 Z" fill="#3b7ea1"/>
            </g>
            <g id="Graphic_19">
              <title>rect821-28-89-8</title>
              <path d="M 7.338077 34.234687 L 14.004743 34.234687 C 14.925218 34.234687 15.67141 34.98088 15.67141 35.901354 L 15.67141 42.56802 C 15.67141 43.488495 14.925218 44.234687 14.004743 44.234687 L 7.338077 44.234687 C 6.417602 44.234687 5.67141 43.488495 5.67141 42.56802 L 5.67141 35.901354 C 5.67141 34.98088 6.417602 34.234687 7.338077 34.234687 Z" fill="#3b7ea1"/>
            </g>
            <g id="Graphic_18">
              <title>rect821-23-3-7-1</title>
              <path d="M 49.962707 34.234687 L 56.629373 34.234687 C 57.54985 34.234687 58.29604 34.98088 58.29604 35.901354 L 58.29604 42.56802 C 58.29604 43.488495 57.54985 44.234687 56.629373 44.234687 L 49.962707 44.234687 C 49.04223 44.234687 48.29604 43.488495 48.29604 42.56802 L 48.29604 35.901354 C 48.29604 34.98088 49.04223 34.234687 49.962707 34.234687 Z" fill="#3b7ea1"/>
            </g>
            <g id="Graphic_17">
              <title>rect821-2-5-7-3</title>
              <path d="M 21.546267 21.149747 L 28.212933 21.149747 C 29.133408 21.149747 29.8796 21.89594 29.8796 22.816414 L 29.8796 29.48308 C 29.8796 30.403555 29.133408 31.149747 28.212933 31.149747 L 21.546267 31.149747 C 20.625792 31.149747 19.8796 30.403555 19.8796 29.48308 L 19.8796 22.816414 C 19.8796 21.89594 20.625792 21.149747 21.546267 21.149747 Z" fill="#fdb515"/>
            </g>
            <g id="Graphic_16">
              <title>rect821-0-9-64-1</title>
              <path d="M 35.754487 21.149747 L 42.421153 21.149747 C 43.34163 21.149747 44.08782 21.89594 44.08782 22.816414 L 44.08782 29.48308 C 44.08782 30.403555 43.34163 31.149747 42.421153 31.149747 L 35.754487 31.149747 C 34.83401 31.149747 34.08782 30.403555 34.08782 29.48308 L 34.08782 22.816414 C 34.08782 21.89594 34.83401 21.149747 35.754487 21.149747 Z" fill="#fdb515"/>
            </g>
            <g id="Graphic_15">
              <title>rect821-2-9-3-1</title>
              <path d="M 21.546267 34.234687 L 28.212933 34.234687 C 29.133408 34.234687 29.8796 34.98088 29.8796 35.901354 L 29.8796 42.56802 C 29.8796 43.488495 29.133408 44.234687 28.212933 44.234687 L 21.546267 44.234687 C 20.625792 44.234687 19.8796 43.488495 19.8796 42.56802 L 19.8796 35.901354 C 19.8796 34.98088 20.625792 34.234687 21.546267 34.234687 Z" fill="#fdb515"/>
            </g>
            <g id="Graphic_14">
              <title>rect821-0-7-0-0</title>
              <path d="M 35.754487 34.234687 L 42.421153 34.234687 C 43.34163 34.234687 44.08782 34.98088 44.08782 35.901354 L 44.08782 42.56802 C 44.08782 43.488495 43.34163 44.234687 42.421153 44.234687 L 35.754487 44.234687 C 34.83401 44.234687 34.08782 43.488495 34.08782 42.56802 L 34.08782 35.901354 C 34.08782 34.98088 34.83401 34.234687 35.754487 34.234687 Z" fill="#fdb515"/>
            </g>
          </g>
        </g>
        <g id="Group_8">
          <title>flowRoot5074</title>
          <g id="Graphic_11">
            <title>path10425</title>
            <rect x="325.7948" y="1.2503979" width="14.276755" height="63.491884" fill="#3b7ea1"/>
          </g>
          <g id="Graphic_10">
            <title>path10427</title>
            <path d="M 351.4624 64.74228 L 351.4624 1.2503979 L 390.64753 33.95834 L 390.7994 1.2503979 L 405.07616 1.2503979 L 405.07616 64.74228 L 365.73915 32.1113 L 365.73915 64.74228 Z" fill="#3b7ea1"/>
          </g>
          <g id="Graphic_9">
            <title>path10429</title>
            <rect x="416.4672" y="1.2503979" width="14.276755" height="63.491884" fill="#3b7ea1"/>
          </g>
        </g>
        <g id="Group_5">
          <title>flowRoot5074-0</title>
          <g id="Graphic_7">
            <title>path10420</title>
            <path d="M 111.87161 13.083176 C 103.74601 13.083176 96.68357 21.010042 96.75951 32.0153 C 96.60763 54.87238 122.19948 54.56454 123.1867 45.560237 C 123.1867 40.326967 121.59196 40.403927 109.2137 40.250007 L 112.25131 29.090827 L 138.07098 29.090827 C 138.07098 49.63911 137.38752 65.33892 110.88439 65.80068 C 94.02567 65.80068 80.35643 51.10135 80.35643 32.93882 C 80.35643 14.699333 93.26627 0 110.96033 0 C 121.97166 0 129.71756 4.1558324 135.18525 10.85134 L 125.8446 21.240921 C 122.19948 15.315012 117.11148 13.083176 111.87161 13.083176 Z" fill="#003262"/>
          </g>
          <g id="Graphic_6">
            <title>path10422</title>
            <path d="M 183.93866 1.1543979 L 148.0949 1.1543979 L 148.0949 64.64628 L 183.93866 64.64628 L 183.93866 51.947905 L 162.37165 51.947905 L 162.37165 39.17257 L 183.02738 39.17257 L 183.02738 26.474192 L 162.37165 26.474192 L 162.37165 13.852775 L 183.93866 13.852775 Z" fill="#003262"/>
          </g>
        </g>
        <g id="Graphic_4">
          <title>flowRoot5074-0-6</title>
          <path d="M 195.5555 1.096162 L 195.5388 64.72684 L 209.82312 64.74234 L 209.85072 32.009842 L 222.2815 46.01247 L 234.9657 33.626702 L 235.0514 64.68318 L 249.06663 64.71688 L 249.06663 1.096262 L 222.28154 27.786522 Z" fill="#003262"/>
        </g>
        <g id="Graphic_3">
          <title>flowRoot5074-0-6-5</title>
          <path d="M 260.6833 1.096172 L 260.6666 64.72685 L 274.95093 64.74235 L 274.97853 32.009852 L 287.4093 46.01248 L 300.0935 33.626712 L 300.1795 64.68319 L 314.1948 64.71689 L 314.1948 1.096262 L 287.40964 27.786522 Z" fill="#003262"/>
        </g>
      </g>
    </g>
  </g>
</svg>
