<?xml version="1.0" encoding="UTF-8" standalone="no"?>
<!DOCTYPE svg PUBLIC "-//W3C//DTD SVG 1.1//EN" "http://www.w3.org/Graphics/SVG/1.1/DTD/svg11.dtd">
<svg xmlns:xl="http://www.w3.org/1999/xlink" xmlns="http://www.w3.org/2000/svg" xmlns:dc="http://purl.org/dc/elements/1.1/" version="1.1" viewBox="-2 76 67 67" width="67" height="67">
  <defs/>
  <metadata> Produced by OmniGraffle 7.18.5\n2021-06-05 09:38:17 +0000</metadata>
  <g id="Canvas_1" stroke-dasharray="none" fill-opacity="1" stroke-opacity="1" stroke="none" fill="none">
    <title>Canvas 1</title>
    <g id="Canvas_1_Layer_1">
      <title>Layer 1</title>
      <g id="Graphic_57">
        <title>rect898-95-1-3-8-3-6</title>
        <rect x="64.45288" y="142.32025" width=".047247026" height=".1889881" fill="#fdb515"/>
      </g>
      <g id="Graphic_56">
        <title>rect10-04-2-1-1-3-5</title>
        <path d="M 9.4999 77.50908 C 3.959891 77.50908 -.5 81.96899 -.5 87.509 L -.5 131.5094 C -.5 137.0494 3.959891 141.50932 9.4999 141.50932 L 31.500112 141.50932 L 53.50032 141.50932 C 59.04032 141.50932 63.50022 137.0494 63.50022 131.5094 L 63.50022 87.509 C 63.50022 81.96899 59.04032 77.50908 53.50032 77.50908 C 53.50032 77.50908 38.8335 77.50908 31.500112 77.50908 C 24.166705 77.50908 9.4999 77.50908 9.4999 77.50908 Z" fill="#003262"/>
        <path d="M 9.4999 77.50908 C 3.959891 77.50908 -.5 81.96899 -.5 87.509 L -.5 131.5094 C -.5 137.0494 3.959891 141.50932 9.4999 141.50932 L 31.500112 141.50932 L 53.50032 141.50932 C 59.04032 141.50932 63.50022 137.0494 63.50022 131.5094 L 63.50022 87.509 C 63.50022 81.96899 59.04032 77.50908 53.50032 77.50908 C 53.50032 77.50908 38.8335 77.50908 31.500112 77.50908 C 24.166705 77.50908 9.4999 77.50908 9.4999 77.50908 Z" stroke="#3b7ea1" stroke-linecap="butt" stroke-linejoin="round" stroke-width="2"/>
      </g>
      <g id="Graphic_55">
        <title>rect4679-8-72-36-2-9-8-6</title>
        <path d="M 26.379466 89.3302 L 26.379466 127.17217 C 26.379466 128.27674 25.484035 129.17217 24.379466 129.17217 C 23.274897 129.17217 22.379466 128.27674 22.379466 127.17217 L 22.379466 89.3302 C 22.379466 88.22563 23.274897 87.3302 24.379466 87.3302 C 25.484035 87.3302 26.379466 88.22563 26.379466 89.3302 Z" fill="#c4820e"/>
      </g>
      <g id="Graphic_54">
        <title>rect4679-8-7-7-0-0-3-6-3</title>
        <path d="M 40.58765 89.4613 L 40.58765 127.91676 C 40.58765 129.02133 39.69222 129.91676 38.58765 129.91676 C 37.483083 129.91676 36.58765 129.02133 36.58765 127.91676 L 36.58765 89.4613 C 36.58765 88.35673 37.483083 87.4613 38.58765 87.4613 C 39.69222 87.4613 40.58765 88.35673 40.58765 89.4613 Z" fill="#c4820e"/>
      </g>
      <g id="Graphic_53">
        <title>path2812-5-8-2</title>
        <path d="M 9.89385 90.01448 C 31.467502 91.90877 31.572762 91.92045 52.76054 90.02618" stroke="#c4820e" stroke-linecap="butt" stroke-linejoin="round" stroke-width="3.5"/>
      </g>
      <g id="Graphic_52">
        <title>rect821-1-7-6-0-9-9</title>
        <path d="M 6.800021 84.67037 C 5.886151 84.5386 5.17492 85.51299 5.17439 86.43632 L 5.17139 92.42804 C 5.17139 93.35137 5.92606 94.48117 6.8462 94.55764 L 13.512995 95.1116 C 14.433165 95.1881 15.160055 94.2278 15.163015 93.30447 L 15.180515 87.85702 C 15.183515 86.9337 14.445395 85.77266 13.531495 85.64089 Z" fill="#fdb515"/>
      </g>
      <g id="Graphic_51">
        <title>rect821-2-59-92-6-9-7-3</title>
        <path d="M 20.941045 86.53541 C 20.020215 86.46701 19.315075 87.43067 19.321235 88.35398 L 19.356335 93.60591 C 19.362335 94.52921 20.112225 95.63936 21.034595 95.68172 L 27.654595 95.98575 C 28.576965 96.02815 29.361342 94.96186 29.367922 94.03854 L 29.403022 89.11403 C 29.410022 88.19072 28.633865 87.10657 27.713085 87.03821 Z" fill="#fdb515"/>
      </g>
      <g id="Graphic_50">
        <title>rect821-0-4-02-4-6-7-9</title>
        <path d="M 35.28925 87.02651 C 34.36806 87.08921 33.58323 88.17901 33.58762 89.10233 L 33.61092 94.02686 C 33.61592 94.95017 34.33183 96.06481 35.25409 96.02082 L 41.8741 95.70512 C 42.79638 95.66112 43.62672 94.50584 43.62252 93.58251 L 43.59922 88.44753 C 43.59522 87.5242 42.9123 86.5078 41.99113 86.57049 Z" fill="#fdb515"/>
      </g>
      <g id="Graphic_49">
        <title>rect821-23-90-37-9-3-6-0</title>
        <path d="M 49.46262 85.707 C 48.54666 85.82345 47.81399 86.96286 47.8126 87.8862 L 47.8046 93.31274 C 47.8016 94.23607 48.57596 95.22323 49.49594 95.14467 L 56.08005 94.58244 C 57 94.50384 57.79622 93.44232 57.79622 92.51899 L 57.79622 86.64596 C 57.79622 85.72263 57.01251 84.7472 56.09658 84.86365 Z" fill="#fdb515"/>
      </g>
      <g id="Graphic_48">
        <title>path2812-1-1-0-9</title>
        <path d="M 10.02086 128.74164 C 31.582822 126.7772 31.671532 126.76517 52.84762 128.72964" stroke="#c4820e" stroke-linecap="butt" stroke-linejoin="round" stroke-width="3.5"/>
      </g>
      <g id="Graphic_47">
        <title>rect821-6-1-9-7-5-9-6</title>
        <path d="M 6.82129 124.28346 C 5.901381 124.36296 5.19031 125.40755 5.187801 126.33088 L 5.171401 132.4349 C 5.168401 133.35823 5.957021 134.24936 6.871031 134.11852 L 13.455134 133.17594 C 14.369164 133.04509 15.201544 131.83687 15.204374 130.91354 L 15.220774 125.53713 C 15.223774 124.6138 14.441074 123.62522 13.521144 123.70469 Z" fill="#fdb515"/>
      </g>
      <g id="Graphic_46">
        <title>rect821-2-1-59-7-1-9-2-3</title>
        <path d="M 20.963585 123.1259 C 20.041115 123.1661 19.432285 124.31614 19.429325 125.23948 L 19.412925 130.4009 C 19.409925 131.32424 20.191665 132.30073 21.112555 132.23337 L 27.895085 131.73727 C 28.815935 131.66987 29.474692 130.64617 29.462432 129.72292 L 29.396232 124.74338 C 29.384032 123.82013 28.718265 122.78806 27.795825 122.82825 Z" fill="#fdb515"/>
      </g>
      <g id="Graphic_45">
        <title>rect821-0-2-7-36-7-8-5-8</title>
        <path d="M 35.30095 122.84322 C 34.37865 122.80002 33.61321 123.8559 33.61101 124.77924 L 33.59941 129.71492 C 33.59641 130.63825 34.16984 131.68706 35.09057 131.75618 L 41.94445 132.27067 C 42.86516 132.33977 43.58346 131.3749 43.58761 130.45158 L 43.61091 125.24696 C 43.61491 124.32363 42.96022 123.20214 42.03788 123.15892 Z" fill="#fdb515"/>
      </g>
      <g id="Graphic_44">
        <title>rect821-23-9-76-1-2-4-4-5</title>
        <path d="M 49.49569 123.72122 C 48.57587 123.64082 47.80174 124.63035 47.79606 125.55367 L 47.76296 130.93008 C 47.75696 131.8534 48.6962 133.02073 49.61142 133.14287 L 56.17898 134.0193 C 57.09418 134.14143 57.83412 133.20939 57.82901 132.28608 L 57.79591 126.31435 C 57.79091 125.39102 57.0326 124.38046 56.11281 124.3 Z" fill="#fdb515"/>
      </g>
      <g id="Group_12">
        <title>g4779</title>
        <g id="Graphic_20">
          <title>rect821-7-48</title>
          <path d="M 6.838069 97.85898 L 13.504735 97.85898 C 14.42521 97.85898 15.171402 98.60517 15.171402 99.52565 L 15.171402 106.19232 C 15.171402 107.11279 14.42521 107.85898 13.504735 107.85898 L 6.838069 107.85898 C 5.917594 107.85898 5.171402 107.11279 5.171402 106.19232 L 5.171402 99.52565 C 5.171402 98.60517 5.917594 97.85898 6.838069 97.85898 Z" fill="#3b7ea1"/>
        </g>
        <g id="Graphic_19">
          <title>rect821-23-2-8</title>
          <path d="M 49.4627 97.85898 L 56.129365 97.85898 C 57.04984 97.85898 57.79603 98.60517 57.79603 99.52565 L 57.79603 106.19232 C 57.79603 107.11279 57.04984 107.85898 56.129365 107.85898 L 49.4627 107.85898 C 48.542224 107.85898 47.79603 107.11279 47.79603 106.19232 L 47.79603 99.52565 C 47.79603 98.60517 48.542224 97.85898 49.4627 97.85898 Z" fill="#3b7ea1"/>
        </g>
        <g id="Graphic_18">
          <title>rect821-28-89</title>
          <path d="M 6.838069 110.94392 L 13.504735 110.94392 C 14.42521 110.94392 15.171402 111.69011 15.171402 112.61059 L 15.171402 119.27726 C 15.171402 120.19773 14.42521 120.94392 13.504735 120.94392 L 6.838069 120.94392 C 5.917594 120.94392 5.171402 120.19773 5.171402 119.27726 L 5.171402 112.61059 C 5.171402 111.69011 5.917594 110.94392 6.838069 110.94392 Z" fill="#3b7ea1"/>
        </g>
        <g id="Graphic_17">
          <title>rect821-23-3-7</title>
          <path d="M 49.4627 110.94392 L 56.129365 110.94392 C 57.04984 110.94392 57.79603 111.69011 57.79603 112.61059 L 57.79603 119.27726 C 57.79603 120.19773 57.04984 120.94392 56.129365 120.94392 L 49.4627 120.94392 C 48.542224 120.94392 47.79603 120.19773 47.79603 119.27726 L 47.79603 112.61059 C 47.79603 111.69011 48.542224 110.94392 49.4627 110.94392 Z" fill="#3b7ea1"/>
        </g>
        <g id="Graphic_16">
          <title>rect821-2-5-7</title>
          <path d="M 21.046259 97.85898 L 27.712925 97.85898 C 28.6334 97.85898 29.379592 98.60517 29.379592 99.52565 L 29.379592 106.19232 C 29.379592 107.11279 28.6334 107.85898 27.712925 107.85898 L 21.046259 107.85898 C 20.125784 107.85898 19.379592 107.11279 19.379592 106.19232 L 19.379592 99.52565 C 19.379592 98.60517 20.125784 97.85898 21.046259 97.85898 Z" fill="#fdb515"/>
        </g>
        <g id="Graphic_15">
          <title>rect821-0-9-64</title>
          <path d="M 35.25448 97.85898 L 41.921145 97.85898 C 42.84162 97.85898 43.58781 98.60517 43.58781 99.52565 L 43.58781 106.19232 C 43.58781 107.11279 42.84162 107.85898 41.921145 107.85898 L 35.25448 107.85898 C 34.334004 107.85898 33.58781 107.11279 33.58781 106.19232 L 33.58781 99.52565 C 33.58781 98.60517 34.334004 97.85898 35.25448 97.85898 Z" fill="#fdb515"/>
        </g>
        <g id="Graphic_14">
          <title>rect821-2-9-3</title>
          <path d="M 21.046259 110.94392 L 27.712925 110.94392 C 28.6334 110.94392 29.379592 111.69011 29.379592 112.61059 L 29.379592 119.27726 C 29.379592 120.19773 28.6334 120.94392 27.712925 120.94392 L 21.046259 120.94392 C 20.125784 120.94392 19.379592 120.19773 19.379592 119.27726 L 19.379592 112.61059 C 19.379592 111.69011 20.125784 110.94392 21.046259 110.94392 Z" fill="#fdb515"/>
        </g>
        <g id="Graphic_13">
          <title>rect821-0-7-0</title>
          <path d="M 35.25448 110.94392 L 41.921145 110.94392 C 42.84162 110.94392 43.58781 111.69011 43.58781 112.61059 L 43.58781 119.27726 C 43.58781 120.19773 42.84162 120.94392 41.921145 120.94392 L 35.25448 120.94392 C 34.334004 120.94392 33.58781 120.19773 33.58781 119.27726 L 33.58781 112.61059 C 33.58781 111.69011 34.334004 110.94392 35.25448 110.94392 Z" fill="#fdb515"/>
        </g>
      </g>
    </g>
  </g>
</svg>
